HIERARCHY
ROOT Hips
{
	OFFSET 0.00000 0.00000 0.00000
	CHANNELS 6 Xposition Yposition Zposition Zrotation Yrotation Xrotation 
	JOINT LHipJoint
	{
		OFFSET 0 0 0
		CHANNELS 3 Zrotation Yrotation Xrotation
		JOINT LeftUpLeg
		{
			OFFSET 1.74857 -1.85566 0.69197
			CHANNELS 3 Zrotation Yrotation Xrotation
			JOINT LeftLeg
			{
				OFFSET 2.40003 -6.59403 0.00000
				CHANNELS 3 Zrotation Yrotation Xrotation
				JOINT LeftFoot
				{
					OFFSET 2.82169 -7.75254 0.00000
					CHANNELS 3 Zrotation Yrotation Xrotation
					JOINT LeftToeBase
					{
						OFFSET 0.16466 -0.45240 2.26890
						CHANNELS 3 Zrotation Yrotation Xrotation
						End Site
						{
							OFFSET 0.00000 -0.00000 1.16486
						}
					}
				}
			}
		}
	}
	JOINT RHipJoint
	{
		OFFSET 0 0 0
		CHANNELS 3 Zrotation Yrotation Xrotation
		JOINT RightUpLeg
		{
			OFFSET -1.64169 -1.85566 0.69197
			CHANNELS 3 Zrotation Yrotation Xrotation
			JOINT RightLeg
			{
				OFFSET -2.41814 -6.64379 0.00000
				CHANNELS 3 Zrotation Yrotation Xrotation
				JOINT RightFoot
				{
					OFFSET -2.80588 -7.70911 0.00000
					CHANNELS 3 Zrotation Yrotation Xrotation
					JOINT RightToeBase
					{
						OFFSET -0.19098 -0.52472 2.25401
						CHANNELS 3 Zrotation Yrotation Xrotation
						End Site
						{
							OFFSET -0.00000 -0.00000 1.16333
						}
					}
				}
			}
		}
	}
	JOINT LowerBack
	{
		OFFSET 0 0 0
		CHANNELS 3 Zrotation Yrotation Xrotation
		JOINT Spine
		{
			OFFSET -0.02828 2.14690 -0.11061
			CHANNELS 3 Zrotation Yrotation Xrotation
			JOINT Spine1
			{
				OFFSET -0.00167 2.15299 0.00759
				CHANNELS 3 Zrotation Yrotation Xrotation
				JOINT Neck
				{
					OFFSET 0 0 0
					CHANNELS 3 Zrotation Yrotation Xrotation
					JOINT Neck1
					{
						OFFSET -0.09296 1.90118 0.07197
						CHANNELS 3 Zrotation Yrotation Xrotation
						JOINT Head
						{
							OFFSET 0.08490 1.89526 -0.24604
							CHANNELS 3 Zrotation Yrotation Xrotation
							End Site
							{
								OFFSET 0.03186 1.92109 -0.09483
							}
						}
					}
				}
				JOINT LeftShoulder
				{
					OFFSET 0 0 0
					CHANNELS 3 Zrotation Yrotation Xrotation
					JOINT LeftArm
					{
						OFFSET 3.21569 1.44644 -0.03720
						CHANNELS 3 Zrotation Yrotation Xrotation
						JOINT LeftForeArm
						{
							OFFSET 5.47651 -0.00000 -0.00000
							CHANNELS 3 Zrotation Yrotation Xrotation
							JOINT LeftHand
							{
								OFFSET 3.09058 -0.00000 -0.00000
								CHANNELS 3 Zrotation Yrotation Xrotation
								JOINT LeftFingerBase
								{
									OFFSET 0 0 0
									CHANNELS 3 Zrotation Yrotation Xrotation
									JOINT LeftHandIndex1
									{
										OFFSET 0.77161 -0.00000 -0.00000
										CHANNELS 3 Zrotation Yrotation Xrotation
										End Site
										{
											OFFSET 0.62209 -0.00000 -0.00000
										}
									}
								}
								JOINT LThumb
								{
									OFFSET 0 0 0
									CHANNELS 3 Zrotation Yrotation Xrotation
									End Site
									{
										OFFSET 0.63159 -0.00000 0.63159
									}
								}
							}
						}
					}
				}
				JOINT RightShoulder
				{
					OFFSET 0 0 0
					CHANNELS 3 Zrotation Yrotation Xrotation
					JOINT RightArm
					{
						OFFSET -3.38693 1.28904 -0.07093
						CHANNELS 3 Zrotation Yrotation Xrotation
						JOINT RightForeArm
						{
							OFFSET -5.14182 -0.00000 -0.00000
							CHANNELS 3 Zrotation Yrotation Xrotation
							JOINT RightHand
							{
								OFFSET -3.35565 -0.00000 -0.00000
								CHANNELS 3 Zrotation Yrotation Xrotation
								JOINT RightFingerBase
								{
									OFFSET 0 0 0
									CHANNELS 3 Zrotation Yrotation Xrotation
									JOINT RightHandIndex1
									{
										OFFSET -0.80104 -0.00000 -0.00000
										CHANNELS 3 Zrotation Yrotation Xrotation
										End Site
										{
											OFFSET -0.64582 -0.00000 -0.00000
										}
									}
								}
								JOINT RThumb
								{
									OFFSET 0 0 0
									CHANNELS 3 Zrotation Yrotation Xrotation
									End Site
									{
										OFFSET -0.65568 -0.00000 0.65568
									}
								}
							}
						}
					}
				}
			}
		}
	}
}
MOTION
Frames: 10
Frame Time: .0083333
-0.4191 18.1422 -0.9731 0.1626 -0.5739 6.0356 0.0000 0.0000 0.0000 -15.7226 -6.8667 -13.4312 1.3928 7.4664 21.1048 0.4887 5.7787 -16.5822 0.8097 -5.7423 -16.0385 0.0000 0.0000 0.0000 19.8091 5.0896 -13.5765 -1.3104 -7.2511 20.4615 0.0997 -13.4499 -17.8777 -0.3248 3.6631 -10.1307 -3.5578 0.5991 9.5687 -1.1294 0.4357 3.2786 0.7838 0.2114 -1.9749 -2.4654 3.9846 -2.6161 8.9496 4.4203 14.0749 3.3543 2.5396 4.3514 -0.0000 0.0000 0.0000 71.8411 -58.9250 -76.9781 48.8629 -52.5265 -25.2689 -0.0000 0.0000 -20.4522 -39.4220 31.6560 -23.3368 -7.1250 0.0000 -0.0000 -66.6491 50.2433 -14.1852 -0.0000 0.0000 0.0000 -27.8269 32.3991 -60.4104 -22.2711 33.2821 -6.7340 0.0000 0.0000 10.4254 38.7985 1.6576 1.3323 7.1250 -0.0000 -0.0000 42.2953 -22.7308 32.9692
-0.4342 18.1469 -0.9696 0.1669 -0.3258 6.1411 0.0000 0.0000 0.0000 -15.6601 -7.0111 -13.3679 1.3552 7.3691 20.8136 0.4759 5.7804 -16.4273 0.7899 -5.6734 -15.8395 0.0000 0.0000 0.0000 19.8559 5.0869 -13.6044 -1.3021 -7.2289 20.3954 0.1027 -13.5481 -17.9882 -0.2892 3.4581 -9.5570 -3.4313 0.7283 9.5608 -1.2240 0.6164 3.2780 0.5949 0.3021 -1.9764 -2.3607 3.7597 -2.9362 8.9634 4.0825 14.5065 3.3484 2.3948 4.5596 0.0000 -0.0000 0.0000 70.7667 -58.0224 -76.3317 48.7747 -52.4892 -25.1989 -0.0000 0.0000 -20.6141 -39.0198 31.6473 -23.0345 -7.1250 0.0000 -0.0000 -66.4021 50.3088 -14.2164 0.0000 -0.0000 0.0000 -29.0043 32.2771 -61.1807 -22.4115 33.4389 -6.8112 0.0000 0.0000 10.5185 38.5848 1.7182 1.3704 7.1250 -0.0000 -0.0000 42.2184 -22.7653 32.7839
-0.4481 18.1508 -0.9695 0.2772 -0.1252 6.2432 0.0000 0.0000 0.0000 -15.7196 -7.1099 -13.3351 1.3207 7.2785 20.5433 0.4608 5.7721 -16.2339 0.7744 -5.6189 -15.6826 0.0000 0.0000 0.0000 19.7779 5.0694 -13.6779 -1.2969 -7.2152 20.3545 0.1132 -13.6522 -18.0102 -0.2761 3.3798 -9.3381 -3.4034 0.8895 9.5725 -1.3405 0.8287 3.2739 0.4348 0.4085 -1.9925 -2.3525 3.5328 -2.9737 8.9984 3.7648 14.6165 3.3494 2.2453 4.6177 -0.0000 0.0000 0.0000 69.9002 -57.1764 -75.9095 48.4477 -52.3499 -24.9398 -0.0000 0.0000 -20.7698 -38.7984 31.5926 -22.8400 -7.1250 0.0000 -0.0000 -66.2092 50.3148 -14.1382 -0.0000 0.0000 0.0000 -30.1624 32.1847 -61.8600 -22.5094 33.5480 -6.8653 0.0000 0.0000 10.5088 38.2623 1.7965 1.4164 7.1250 -0.0000 -0.0000 42.1047 -22.8270 32.4956
-0.4604 18.1549 -0.9691 0.3787 0.0637 6.3849 0.0000 0.0000 0.0000 -15.7756 -7.2665 -13.3312 1.2909 7.1992 20.3067 0.4477 5.8173 -16.1066 0.7738 -5.6168 -15.6764 0.0000 0.0000 0.0000 19.6883 5.0748 -13.8010 -1.2934 -7.2058 20.3264 0.1097 -13.6750 -18.0913 -0.2508 3.2224 -8.8985 -3.2697 1.0999 9.5443 -1.5010 1.1164 3.2593 0.1619 0.5526 -1.9962 -2.5480 3.2651 -2.7535 9.3787 3.3875 14.3427 3.4736 2.0640 4.5060 0.0000 -0.0000 0.0000 69.4575 -56.4875 -75.9814 47.9304 -52.1259 -24.5308 -0.0000 0.0000 -20.7155 -38.9808 31.2624 -22.7803 -7.1250 0.0000 -0.0000 -65.9478 50.0820 -13.4898 0.0000 -0.0000 0.0000 -31.0868 31.9024 -62.1261 -22.6561 33.7106 -6.9465 0.0000 0.0000 10.2906 37.8743 1.8504 1.4386 7.1250 -0.0000 -0.0000 41.9792 -22.9345 32.1185
-0.4719 18.1597 -0.9675 0.4023 0.2713 6.4886 0.0000 0.0000 0.0000 -15.7452 -7.4169 -13.3001 1.2645 7.1279 20.0947 0.4292 5.8696 -15.9158 0.7780 -5.6317 -15.7194 0.0000 0.0000 0.0000 19.6916 5.0396 -13.9064 -1.2948 -7.2095 20.3375 0.0971 -13.6585 -18.2278 -0.2208 3.0248 -8.3478 -3.0232 1.2663 9.5496 -1.6689 1.3545 3.2464 -0.1769 0.6726 -2.0095 -2.8168 3.0299 -2.7283 9.9290 3.0235 14.3189 3.6748 1.9031 4.4997 0.0000 -0.0000 0.0000 68.8415 -55.8120 -75.7809 47.5968 -51.9790 -24.2677 -0.0000 0.0000 -20.6221 -39.1511 31.2111 -22.8744 -7.1250 0.0000 -0.0000 -65.9902 50.0209 -13.3700 0.0000 -0.0000 0.0000 -32.0798 31.8244 -62.6697 -22.7164 33.7772 -6.9800 0.0000 0.0000 10.3240 37.5446 1.9990 1.5357 7.1250 -0.0000 -0.0000 41.8319 -22.9265 31.8941
-0.4834 18.1630 -0.9675 0.4644 0.4307 6.5543 0.0000 0.0000 0.0000 -15.7622 -7.5017 -13.2723 1.2428 7.0688 19.9192 0.4121 5.9291 -15.7467 0.7829 -5.6488 -15.7687 0.0000 0.0000 0.0000 19.6615 4.9683 -14.0197 -1.3004 -7.2244 20.3820 0.0978 -13.6922 -18.2691 -0.2186 3.0101 -8.3070 -2.8421 1.4345 9.6520 -1.8523 1.5835 3.2101 -0.4971 0.7885 -2.0982 -2.8104 2.8003 -2.8741 10.0981 2.6714 14.6202 3.7235 1.7514 4.6368 0.0000 -0.0000 0.0000 68.0171 -55.1454 -75.1754 47.3878 -51.8861 -24.1032 -0.0000 0.0000 -20.4729 -39.0236 31.3080 -22.8384 -7.1250 0.0000 -0.0000 -66.0238 50.1024 -13.5708 0.0000 -0.0000 0.0000 -33.0434 32.0075 -63.6034 -22.7968 33.8658 -7.0247 0.0000 0.0000 10.7648 37.6259 2.3029 1.7741 7.1250 -0.0000 -0.0000 41.7453 -22.6121 32.2494
-0.4931 18.1649 -0.9697 0.5613 0.5435 6.6484 0.0000 0.0000 0.0000 -15.8263 -7.5900 -13.3086 1.2260 7.0225 19.7820 0.4014 5.9854 -15.6551 0.7749 -5.6207 -15.6878 0.0000 0.0000 0.0000 19.5801 4.9559 -14.1741 -1.3106 -7.2517 20.4631 0.0982 -13.7223 -18.3103 -0.2246 3.0504 -8.4190 -2.6572 1.6198 9.7130 -2.0529 1.8389 3.2334 -0.8387 0.9164 -2.0986 -2.6433 2.5652 -2.8607 10.0304 2.3498 14.6162 3.6612 1.5997 4.6595 0.0000 -0.0000 0.0000 67.2946 -54.3957 -74.6778 47.1610 -51.7843 -23.9249 -0.0000 0.0000 -20.3609 -39.1073 31.3801 -22.9421 -7.1250 0.0000 -0.0000 -66.1536 50.1316 -13.6971 0.0000 -0.0000 0.0000 -34.0706 32.1812 -64.6104 -22.8805 33.9579 -7.0714 0.0000 0.0000 11.0070 37.6436 2.3558 1.8159 7.1250 -0.0000 -0.0000 41.7314 -22.5558 32.3151
-0.5026 18.1656 -0.9760 0.6917 0.6509 6.7707 0.0000 0.0000 0.0000 -15.9174 -7.6735 -13.4277 1.2153 6.9929 19.6942 0.3963 5.9681 -15.5734 0.7489 -5.5277 -15.4199 0.0000 0.0000 0.0000 19.4546 4.9372 -14.4085 -1.3259 -7.2921 20.5837 0.0942 -13.7222 -18.3607 -0.2235 3.0430 -8.3985 -2.5081 1.7868 9.7150 -2.2652 2.0718 3.3392 -1.1665 1.0326 -1.9780 -2.5418 2.3489 -2.9293 10.0799 2.0569 14.4285 3.6446 1.4632 4.6348 0.0000 -0.0000 0.0000 66.5663 -53.5668 -74.2071 46.9840 -51.7042 -23.7859 -0.0000 0.0000 -20.1490 -39.4445 31.2638 -23.1210 -7.1250 0.0000 -0.0000 -66.2198 50.0017 -13.4309 0.0000 -0.0000 0.0000 -35.2511 32.3157 -65.5941 -22.9019 33.9814 -7.0834 0.0000 0.0000 10.9465 37.4926 2.1439 1.6438 7.1250 -0.0000 -0.0000 41.7644 -22.8121 31.9662
-0.5117 18.1664 -0.9850 0.8458 0.7532 6.8821 0.0000 0.0000 0.0000 -16.0457 -7.7266 -13.5714 1.2103 6.9791 19.6534 0.3818 5.9909 -15.4017 0.7741 -5.6179 -15.6796 0.0000 0.0000 0.0000 19.2943 4.9223 -14.6653 -1.3457 -7.3443 20.7393 0.0908 -13.7088 -18.3837 -0.2238 3.0449 -8.4037 -2.3876 1.9592 9.7483 -2.4852 2.3039 3.3216 -1.4898 1.1496 -2.0004 -2.5282 2.1345 -2.5671 10.3118 1.7559 14.1833 3.6915 1.3162 4.5150 0.0000 -0.0000 0.0000 65.6417 -53.0512 -73.4757 46.8721 -51.6533 -23.6980 -0.0000 0.0000 -19.7299 -39.5014 31.2108 -23.1313 -7.1250 0.0000 -0.0000 -66.1934 49.9595 -13.3218 0.0000 -0.0000 0.0000 -36.3192 32.6944 -66.4390 -22.8509 33.9253 -7.0549 0.0000 0.0000 10.9886 37.2722 1.9998 1.5212 7.1250 -0.0000 -0.0000 41.7525 -23.0308 31.6040
-0.5224 18.1669 -0.9927 0.9618 0.8194 7.0412 0.0000 0.0000 0.0000 -16.1187 -7.7173 -13.8126 1.2104 6.9793 19.6541 0.3659 5.9953 -15.1929 0.8102 -5.7441 -16.0437 0.0000 0.0000 0.0000 19.1753 5.0016 -14.9525 -1.3696 -7.4067 20.9258 0.0874 -13.7284 -18.4553 -0.2227 3.0379 -8.3843 -2.2335 2.1475 9.7397 -2.6954 2.5651 3.3831 -1.8214 1.2808 -1.9133 -2.5764 1.8851 -2.6027 10.5715 1.3982 14.0785 3.7650 1.1526 4.5097 -0.0000 0.0000 0.0000 64.7484 -52.3704 -72.7939 46.8151 -51.6273 -23.6534 -0.0000 0.0000 -19.3813 -39.2472 31.2296 -22.9558 -7.1250 0.0000 -0.0000 -66.0671 50.0154 -13.3925 -0.0000 0.0000 0.0000 -37.4310 32.9962 -67.4402 -22.7912 33.8597 -7.0216 0.0000 0.0000 11.0811 36.9597 1.9279 1.4501 7.1250 -0.0000 -0.0000 41.6855 -23.2149 31.2113
